<svg viewBox="0 0 100 100" xmlns="http://www.w3.org/2000/svg">
  <defs>
    <!-- Main gradient matching your design system -->
    <linearGradient id="mainGradient" x1="0%" y1="0%" x2="100%" y2="100%">
      <stop offset="0%" style="stop-color:#2563eb;stop-opacity:1" />
      <stop offset="50%" style="stop-color:#3b82f6;stop-opacity:1" />
      <stop offset="100%" style="stop-color:#7c3aed;stop-opacity:1" />
    </linearGradient>
    
    <!-- Secondary gradient for depth -->
    <linearGradient id="secondaryGradient" x1="0%" y1="0%" x2="100%" y2="100%">
      <stop offset="0%" style="stop-color:#1e40af;stop-opacity:1" />
      <stop offset="100%" style="stop-color:#6d28d9;stop-opacity:1" />
    </linearGradient>
    
    <!-- Shadow filter -->
    <filter id="shadow" x="-30%" y="-30%" width="160%" height="160%">
      <feDropShadow dx="0" dy="2" stdDeviation="3" flood-color="#000000" flood-opacity="0.2"/>
    </filter>
    
    <!-- Glow effect for cross -->
    <filter id="glow" x="-50%" y="-50%" width="200%" height="200%">
      <feGaussianBlur stdDeviation="1.5" result="coloredBlur"/>
      <feMerge> 
        <feMergeNode in="coloredBlur"/>
        <feMergeNode in="SourceGraphic"/>
      </feMerge>
    </filter>
  </defs>
  
  <!-- Outer ring with secondary gradient for depth -->
  <circle cx="50" cy="50" r="47" fill="url(#secondaryGradient)" filter="url(#shadow)" opacity="0.8"/>
  
  <!-- Main background circle with primary gradient -->
  <circle cx="50" cy="50" r="43" fill="url(#mainGradient)"/>
  
  <!-- Inner decorative rings -->
  <circle cx="50" cy="50" r="37" fill="none" stroke="rgba(255,255,255,0.3)" stroke-width="1"/>
  <circle cx="50" cy="50" r="31" fill="none" stroke="rgba(255,255,255,0.15)" stroke-width="0.5"/>
  
  <!-- Medical cross with enhanced visibility for small sizes -->
  <g transform="translate(50,50)" filter="url(#glow)">
    <!-- Vertical bar of cross -->
    <rect x="-4" y="-20" width="8" height="40" rx="4" fill="white" opacity="0.95"/>
    <!-- Horizontal bar of cross -->
    <rect x="-20" y="-4" width="40" height="8" rx="4" fill="white" opacity="0.95"/>
    
    <!-- Center circle for visual anchor -->
    <circle cx="0" cy="0" r="6" fill="rgba(255,255,255,0.9)"/>
    
    <!-- Simplified heart shape for favicon readability -->
    <path d="M-8,-5 C-11,-8 -14,-5 -14,-2 C-14,1 -8,7 0,13 C8,7 14,1 14,-2 C14,-5 11,-8 8,-5 C6,-6 3,-6 0,-5 C-3,-6 -6,-6 -8,-5 Z" 
          fill="rgba(255,255,255,0.35)" 
          transform="scale(0.5)"/>
  </g>
  
  <!-- Enhanced shine effects optimized for small display -->
  <ellipse cx="35" cy="25" rx="7" ry="12" fill="rgba(255,255,255,0.3)" transform="rotate(-30 35 25)"/>
  <ellipse cx="60" cy="35" rx="4" ry="6" fill="rgba(255,255,255,0.2)" transform="rotate(45 60 35)"/>
  
  <!-- Small medical accent dots for detail -->
  <g opacity="0.5">
    <circle cx="25" cy="75" r="2" fill="white"/>
    <circle cx="75" cy="25" r="1.5" fill="rgba(255,255,255,0.8)"/>
    <circle cx="28" cy="72" r="1" fill="rgba(255,255,255,0.6)"/>
  </g>
</svg>