<svg viewBox="0 0 100 100" xmlns="http://www.w3.org/2000/svg">
  <defs>
    <!-- Main gradient matching your design system -->
    <linearGradient id="mainGradient" x1="0%" y1="0%" x2="100%" y2="100%">
      <stop offset="0%" style="stop-color:#2563eb;stop-opacity:1" />
      <stop offset="100%" style="stop-color:#7c3aed;stop-opacity:1" />
    </linearGradient>
    
    <!-- Light accent gradient -->
    <linearGradient id="accentGradient" x1="0%" y1="0%" x2="100%" y2="100%">
      <stop offset="0%" style="stop-color:#dbeafe;stop-opacity:1" />
      <stop offset="100%" style="stop-color:#f3e8ff;stop-opacity:1" />
    </linearGradient>
    
    <!-- Shadow filter -->
    <filter id="shadow" x="-20%" y="-20%" width="140%" height="140%">
      <feDropShadow dx="0" dy="2" stdDeviation="3" flood-color="#000000" flood-opacity="0.15"/>
    </filter>
    
    <!-- Glow effect -->
    <filter id="glow" x="-50%" y="-50%" width="200%" height="200%">
      <feGaussianBlur stdDeviation="3" result="coloredBlur"/>
      <feMerge> 
        <feMergeNode in="coloredBlur"/>
        <feMergeNode in="SourceGraphic"/>
      </feMerge>
    </filter>
  </defs>
  
  <!-- Background circle with gradient -->
  <circle cx="50" cy="50" r="45" fill="url(#mainGradient)" filter="url(#shadow)"/>
  
  <!-- Inner light circle for depth -->
  <circle cx="50" cy="50" r="38" fill="none" stroke="rgba(255,255,255,0.2)" stroke-width="1"/>
  
  <!-- Medical cross - modern interpretation -->
  <g transform="translate(50,50)" filter="url(#glow)">
    <!-- Vertical bar of cross -->
    <rect x="-3" y="-20" width="6" height="40" rx="3" fill="white" opacity="0.95"/>
    <!-- Horizontal bar of cross -->
    <rect x="-20" y="-3" width="40" height="6" rx="3" fill="white" opacity="0.95"/>
    
    <!-- Heart shape integrated with cross -->
    <path d="M-12,-8 C-16,-12 -20,-8 -20,-4 C-20,0 -12,8 0,16 C12,8 20,0 20,-4 C20,-8 16,-12 12,-8 C8,-10 4,-10 0,-8 C-4,-10 -8,-10 -12,-8 Z" 
          fill="rgba(255,255,255,0.3)" 
          transform="scale(0.6)"/>
  </g>
  
  <!-- Pulse/heartbeat line around the circle -->
  <g transform="translate(50,50)" opacity="0.7">
    <path d="M-35,0 L-25,0 L-20,-8 L-15,8 L-10,-12 L-5,12 L0,0 L35,0" 
          stroke="white" 
          stroke-width="2" 
          fill="none" 
          opacity="0.6">
      <animate attributeName="stroke-dasharray" 
               values="0,200;100,200;0,200" 
               dur="3s" 
               repeatCount="indefinite"/>
    </path>
  </g>
  
  <!-- Subtle shine effect -->
  <ellipse cx="35" cy="25" rx="8" ry="12" fill="rgba(255,255,255,0.2)" transform="rotate(-30 35 25)"/>
  
  <!-- Corner medical symbols for additional context -->
  <g opacity="0.4">
    <!-- DNA helix suggestion - top right -->
    <circle cx="75" cy="25" r="2" fill="white"/>
    <circle cx="78" cy="27" r="1.5" fill="rgba(255,255,255,0.7)"/>
    <circle cx="72" cy="29" r="1" fill="rgba(255,255,255,0.5)"/>
    
    <!-- Pill/capsule suggestion - bottom left -->
    <ellipse cx="25" cy="75" rx="3" ry="1.5" fill="white" opacity="0.6"/>
    <ellipse cx="28" cy="77" rx="2" ry="1" fill="rgba(255,255,255,0.4)"/>
  </g>
</svg>